HIERARCHY
ROOT reference
{
  OFFSET 0 0 0
  CHANNELS 6 Xposition Yposition Zposition Zrotation Xrotation Yrotation
  JOINT Hips
  {
    OFFSET 356.501 91.4882 232.072
    CHANNELS 3 Zrotation Xrotation Yrotation
    JOINT RightUpLeg
    {
      OFFSET -9.22368 -1.56954 0.0182318
      CHANNELS 3 Zrotation Xrotation Yrotation
      JOINT RightLeg
      {
        OFFSET 0.0168043 -41.8502 0.039304
        CHANNELS 3 Zrotation Xrotation Yrotation
        JOINT RightFoot
        {
          OFFSET -1.24655 -41.4872 1.84727
          CHANNELS 3 Zrotation Xrotation Yrotation
          End Site
          {
            OFFSET 0 -7.69 17.5
          }
        }
      }
    }
    JOINT LeftUpLeg
    {
      OFFSET 9.32755 -1.5915 0.117934
      CHANNELS 3 Zrotation Xrotation Yrotation
      JOINT LeftLeg
      {
        OFFSET 0.115891 -41.8441 0.138627
        CHANNELS 3 Zrotation Xrotation Yrotation
        JOINT LeftFoot
        {
          OFFSET -0.00258131 -42.0603 -2.16995
          CHANNELS 3 Zrotation Xrotation Yrotation
          End Site
          {
            OFFSET 0 -7.69 17.5
          }
        }
      }
    }
    JOINT Spine
    {
      OFFSET 0.0618908 14.3142 0.263402
      CHANNELS 3 Zrotation Xrotation Yrotation
      JOINT Spine1
      {
        OFFSET 0.00953893 9.71784 0.0772804
        CHANNELS 3 Zrotation Xrotation Yrotation
        JOINT Spine2
        {
          OFFSET 0.0659978 10.1164 -0.109334
          CHANNELS 3 Zrotation Xrotation Yrotation
          JOINT Spine3
          {
            OFFSET 0.00354353 9.7233 0.0181573
            CHANNELS 3 Zrotation Xrotation Yrotation
            JOINT Neck
            {
              OFFSET -0.106539 10.3631 0.143191
              CHANNELS 3 Zrotation Xrotation Yrotation
              JOINT Head
              {
                OFFSET 0.0687213 9.49492 0.178169
                CHANNELS 3 Zrotation Xrotation Yrotation
                End Site
                {
                  OFFSET 0 15.95 0
                }
              }
            }
            JOINT RightShoulder
            {
              OFFSET -3.17341 6.93407 0.0508814
              CHANNELS 3 Zrotation Xrotation Yrotation
              JOINT RightArm
              {
                OFFSET -12.8122 0.02699 0.0058978
                CHANNELS 3 Zrotation Xrotation Yrotation
                JOINT RightForeArm
                {
                  OFFSET -26.4689 -0.0132424 0.0432591
                  CHANNELS 3 Zrotation Xrotation Yrotation
                  JOINT RightHand
                  {
                    OFFSET -25.9762 -0.0747187 0.0544432
                    CHANNELS 3 Zrotation Xrotation Yrotation
                    JOINT RightHandThumb1
                    {
                      OFFSET -2.48905 0.190105 3.12053
                      CHANNELS 3 Zrotation Xrotation Yrotation
                      JOINT RightHandThumb2
                      {
                        OFFSET -3.68274 0 0
                        CHANNELS 3 Zrotation Xrotation Yrotation
                        JOINT RightHandThumb3
                        {
                          OFFSET -2.55832 0 0
                          CHANNELS 3 Zrotation Xrotation Yrotation
                          End Site
                          {
                            OFFSET -2.194 0 0
                          }
                        }
                      }
                    }
                    JOINT RightInHandIndex
                    {
                      OFFSET -3.22368 0.508421 1.97842
                      CHANNELS 3 Zrotation Xrotation Yrotation
                      JOINT RightHandIndex1
                      {
                        OFFSET -5.21684 -0.091368 0.999158
                        CHANNELS 3 Zrotation Xrotation Yrotation
                        JOINT RightHandIndex2
                        {
                          OFFSET -3.61937 0 0
                          CHANNELS 3 Zrotation Xrotation Yrotation
                          JOINT RightHandIndex3
                          {
                            OFFSET -2.0521 0 0
                            CHANNELS 3 Zrotation Xrotation Yrotation
                            End Site
                            {
                              OFFSET -1.805 0 0
                            }
                          }
                        }
                      }
                    }
                    JOINT RightInHandMiddle
                    {
                      OFFSET -3.38211 0.517263 0.756737
                      CHANNELS 3 Zrotation Xrotation Yrotation
                      JOINT RightHandMiddle1
                      {
                        OFFSET -5.17411 -0.084 0.313895
                        CHANNELS 3 Zrotation Xrotation Yrotation
                        JOINT RightHandMiddle2
                        {
                          OFFSET -3.94947 0 0
                          CHANNELS 3 Zrotation Xrotation Yrotation
                          JOINT RightHandMiddle3
                          {
                            OFFSET -2.47579 0 0
                            CHANNELS 3 Zrotation Xrotation Yrotation
                            End Site
                            {
                              OFFSET -1.975 0 0
                            }
                          }
                        }
                      }
                    }
                    JOINT RightInHandRing
                    {
                      OFFSET -3.36516 0.537895 -0.128947
                      CHANNELS 3 Zrotation Xrotation Yrotation
                      JOINT RightHandRing1
                      {
                        OFFSET -4.63474 -0.022105 -0.478947
                        CHANNELS 3 Zrotation Xrotation Yrotation
                        JOINT RightHandRing2
                        {
                          OFFSET -3.44238 0 0
                          CHANNELS 3 Zrotation Xrotation Yrotation
                          JOINT RightHandRing3
                          {
                            OFFSET -2.3881 0 0
                            CHANNELS 3 Zrotation Xrotation Yrotation
                            End Site
                            {
                              OFFSET -1.857 0 0
                            }
                          }
                        }
                      }
                    }
                    JOINT RightInHandPinky
                    {
                      OFFSET -3.16105 0.469368 -1.20179
                      CHANNELS 3 Zrotation Xrotation Yrotation
                      JOINT RightHandPinky1
                      {
                        OFFSET -4.14105 -0.022105 -1.09053
                        CHANNELS 3 Zrotation Xrotation Yrotation
                        JOINT RightHandPinky2
                        {
                          OFFSET -2.75653 0 0
                          CHANNELS 3 Zrotation Xrotation Yrotation
                          JOINT RightHandPinky3
                          {
                            OFFSET -1.74189 0 0
                            CHANNELS 3 Zrotation Xrotation Yrotation
                            End Site
                            {
                              OFFSET -1.645 0 0
                            }
                          }
                        }
                      }
                    }
                  }
                }
              }
            }
            JOINT LeftShoulder
            {
              OFFSET 3.13763 6.93537 0.265461
              CHANNELS 3 Zrotation Xrotation Yrotation
              JOINT LeftArm
              {
                OFFSET 12.4516 -0.0856895 0.350644
                CHANNELS 3 Zrotation Xrotation Yrotation
                JOINT LeftForeArm
                {
                  OFFSET 26.6962 -0.139113 0.0812581
                  CHANNELS 3 Zrotation Xrotation Yrotation
                  JOINT LeftHand
                  {
                    OFFSET 25.9561 0.0264111 -0.243705
                    CHANNELS 3 Zrotation Xrotation Yrotation
                    JOINT LeftHandThumb1
                    {
                      OFFSET 2.48905 0.190105 3.12053
                      CHANNELS 3 Zrotation Xrotation Yrotation
                      JOINT LeftHandThumb2
                      {
                        OFFSET 3.68274 0 0
                        CHANNELS 3 Zrotation Xrotation Yrotation
                        JOINT LeftHandThumb3
                        {
                          OFFSET 2.55832 0 0
                          CHANNELS 3 Zrotation Xrotation Yrotation
                          End Site
                          {
                            OFFSET 2.194 0 0
                          }
                        }
                      }
                    }
                    JOINT LeftInHandIndex
                    {
                      OFFSET 3.22368 0.508421 1.97842
                      CHANNELS 3 Zrotation Xrotation Yrotation
                      JOINT LeftHandIndex1
                      {
                        OFFSET 5.21684 -0.091368 0.999158
                        CHANNELS 3 Zrotation Xrotation Yrotation
                        JOINT LeftHandIndex2
                        {
                          OFFSET 3.61937 0 0
                          CHANNELS 3 Zrotation Xrotation Yrotation
                          JOINT LeftHandIndex3
                          {
                            OFFSET 2.0521 0 0
                            CHANNELS 3 Zrotation Xrotation Yrotation
                            End Site
                            {
                              OFFSET 1.805 0 0
                            }
                          }
                        }
                      }
                    }
                    JOINT LeftInHandMiddle
                    {
                      OFFSET 3.38211 0.517263 0.756737
                      CHANNELS 3 Zrotation Xrotation Yrotation
                      JOINT LeftHandMiddle1
                      {
                        OFFSET 5.17411 -0.084 0.313895
                        CHANNELS 3 Zrotation Xrotation Yrotation
                        JOINT LeftHandMiddle2
                        {
                          OFFSET 3.94947 0 0
                          CHANNELS 3 Zrotation Xrotation Yrotation
                          JOINT LeftHandMiddle3
                          {
                            OFFSET 2.47579 0 0
                            CHANNELS 3 Zrotation Xrotation Yrotation
                            End Site
                            {
                              OFFSET 1.975 0 0
                            }
                          }
                        }
                      }
                    }
                    JOINT LeftInHandRing
                    {
                      OFFSET 3.36516 0.537895 -0.128947
                      CHANNELS 3 Zrotation Xrotation Yrotation
                      JOINT LeftHandRing1
                      {
                        OFFSET 4.63474 -0.022105 -0.478947
                        CHANNELS 3 Zrotation Xrotation Yrotation
                        JOINT LeftHandRing2
                        {
                          OFFSET 3.44238 0 0
                          CHANNELS 3 Zrotation Xrotation Yrotation
                          JOINT LeftHandRing3
                          {
                            OFFSET 2.3881 0 0
                            CHANNELS 3 Zrotation Xrotation Yrotation
                            End Site
                            {
                              OFFSET 1.857 0 0
                            }
                          }
                        }
                      }
                    }
                    JOINT LeftInHandPinky
                    {
                      OFFSET 3.16105 0.469368 -1.20179
                      CHANNELS 3 Zrotation Xrotation Yrotation
                      JOINT LeftHandPinky1
                      {
                        OFFSET 4.14105 -0.022105 -1.09053
                        CHANNELS 3 Zrotation Xrotation Yrotation
                        JOINT LeftHandPinky2
                        {
                          OFFSET 2.75653 0 0
                          CHANNELS 3 Zrotation Xrotation Yrotation
                          JOINT LeftHandPinky3
                          {
                            OFFSET 1.74189 0 0
                            CHANNELS 3 Zrotation Xrotation Yrotation
                            End Site
                            {
                              OFFSET 1.645 0 0
                            }
                          }
                        }
                      }
                    }
                  }
                }
              }
            }
          }
        }
      }
    }
  }
}
MOTION
Frames: 2
Frame Time: 0.00833333
3.000000000000000000e+02 0.000000000000000000e+00 0.000000000000000000e+00 0.000000000000000000e+00 0.000000000000000000e+00 0.000000000000000000e+00 -9.698082714269262022e-03 1.070378896614590861e-02 2.823037523958603530e-03 2.955883311599924457e-02 3.925393600456612841e-02 1.304598131131837757e-01 -1.510606494021580863e-02 7.194344083167802592e-03 -7.700341574062066763e-02 1.786477504211615719e-02 -2.099235410019212669e-03 -5.439806253088915605e-02 2.051828050530283415e-02 4.264865375673080466e-02 -4.405462867926247111e-02 -9.718467276783179787e-02 -6.962409539336725239e-02 1.353629849223280390e-01 7.448126576647370878e-02 6.206949465440039088e-02 -6.611965733559953262e-02 -3.867154012344179315e-03 1.884506571712308773e-03 8.107648728763584486e-03 -5.064151148317102983e-04 4.262066821386779458e-04 2.000572752729393514e-03 -8.038663632415198480e-04 6.540182970853539559e-04 3.402783669378638826e-03 7.578213675205276766e-04 3.753565787262952685e-04 8.083571024013629959e-04 1.962598790798329891e-03 4.969248766486586769e-03 4.280052777961593224e-02 1.216359357457704599e-02 7.149406971735917937e-03 -2.154668246754105898e-02 -1.523679379188014674e-02 1.634443642181215156e-02 -1.024094756984425675e-01 2.600434253140063712e-01 1.018642211029454209e-01 3.013924680001110468e-01 -6.828317303769336488e-03 -8.265496487537044024e-02 4.821051764187881533e-02 3.887134952761144013e-02 1.359953536723877698e-02 1.864662842020241296e-03 0.000000000000000000e+00 0.000000000000000000e+00 0.000000000000000000e+00 -7.773136721286592424e-15 -1.755781758138924267e-15 0.000000000000000000e+00 -1.853501896635687603e-15 -3.367833194978015981e-15 0.000000000000000000e+00 2.357390581756635589e-15 -2.431150103077541688e-15 1.140512938922281435e-15 0.000000000000000000e+00 0.000000000000000000e+00 0.000000000000000000e+00 0.000000000000000000e+00 -1.303357626010201446e-15 -6.674577338161987585e-17 0.000000000000000000e+00 -1.568260472733999890e-15 1.428382499523844636e-15 2.357390581756635589e-15 -2.431150103077541688e-15 1.140512938922281435e-15 0.000000000000000000e+00 -1.735507541781363613e-15 2.634785418845102113e-15 0.000000000000000000e+00 -1.765192823455822408e-15 -2.124310101751908443e-16 0.000000000000000000e+00 -2.553163132107806348e-16 6.178310203441469171e-16 2.357390581756635589e-15 -2.431150103077541688e-15 1.140512938922281435e-15 0.000000000000000000e+00 0.000000000000000000e+00 0.000000000000000000e+00 0.000000000000000000e+00 2.418271838649317695e-15 2.262828094944239050e-15 0.000000000000000000e+00 -1.057455630723761567e-15 -1.775681267252641877e-15 2.357390581756635589e-15 -2.431150103077541688e-15 1.140512938922281435e-15 0.000000000000000000e+00 0.000000000000000000e+00 0.000000000000000000e+00 0.000000000000000000e+00 2.994995786155030341e-15 1.945144390416732229e-15 0.000000000000000000e+00 -4.330834201576263445e-15 7.047393656756201246e-16 -8.614565011238774217e-02 2.617905513720713770e-02 -2.182785476819098514e-01 -5.207160451121372463e-02 3.682134865576153215e-02 2.351640313946075644e-01 -1.897471063959129626e-03 -2.108069865535421028e-02 -8.304202076235600583e-02 9.336403890676307771e-02 5.654381781264573859e-02 -3.965175208250663885e-02 0.000000000000000000e+00 0.000000000000000000e+00 0.000000000000000000e+00 -1.579027156700596227e-15 2.688130483134655234e-15 0.000000000000000000e+00 -1.685060522254643666e-15 2.078974088303365287e-15 0.000000000000000000e+00 9.480774090614599246e-16 -4.862180669741072513e-16 -3.572529237585597356e-19 0.000000000000000000e+00 0.000000000000000000e+00 0.000000000000000000e+00 0.000000000000000000e+00 -1.615687811367085329e-15 -1.559203477548520062e-16 0.000000000000000000e+00 -1.103112222854571565e-15 6.885087275441561462e-16 9.480774090614599246e-16 -4.862180669741072513e-16 -3.572529237585597356e-19 0.000000000000000000e+00 6.018543847542664824e-16 5.795398254898556806e-16 0.000000000000000000e+00 -1.299339931158719860e-15 9.481473088039154142e-16 0.000000000000000000e+00 6.939081852012853543e-16 9.374532982452363804e-16 9.480774090614599246e-16 -4.862180669741072513e-16 -3.572529237585597356e-19 0.000000000000000000e+00 0.000000000000000000e+00 0.000000000000000000e+00 0.000000000000000000e+00 1.126928648972817115e-15 1.046843544389301500e-16 0.000000000000000000e+00 1.034217172632834500e-15 2.473133953843728010e-15 9.480774090614599246e-16 -4.862180669741072513e-16 -3.572529237585597356e-19 0.000000000000000000e+00 0.000000000000000000e+00 0.000000000000000000e+00 0.000000000000000000e+00 -1.898405431070846781e-15 -3.058468984339717667e-16 0.000000000000000000e+00 2.524203480712739812e-15 2.441394733800611494e-15
3.000000000000000000e+02 0.000000000000000000e+00 0.000000000000000000e+00 0.000000000000000000e+00 0.000000000000000000e+00 0.000000000000000000e+00 2.048669410531318499e-02 3.620901064841168179e-03 1.203520423991271716e-02 2.773845222694817578e-02 -9.170512232285089188e-03 -1.738475788112599507e-01 -6.261380841370092765e-02 -2.974310367107039360e-02 2.420094149168006137e-01 1.398897525445396903e-02 6.044766623423289582e-03 -5.258415051307255977e-02 5.132961832109858569e-02 3.478682008556476662e-02 -7.328246087575072953e-02 -1.353453515775806526e-01 -8.452513532251185180e-02 1.622761039185618981e-01 -5.910861006570284487e-02 -7.147815892084249945e-02 -7.484901677207164705e-02 2.067398083273803977e-02 -1.049730056368166665e-02 -9.807596257927493621e-03 5.382439826361357961e-03 -1.847725947446858964e-03 -2.482395608301509078e-03 9.962308062587093074e-03 -2.748012723828299145e-03 -3.902902215067969704e-03 -1.393750363354917792e-03 -4.621436725299791722e-04 -1.679217298345888758e-05 5.202113727185208930e-04 -1.475928705916274009e-02 2.486964995833480449e-02 -2.316684755449018376e-02 3.272195807730552547e-02 -1.690799401287293446e-02 -3.205793549107763263e-02 -3.387961762955967598e-04 -1.646800940566657268e-01 3.515696889210428444e-01 1.438165120021197563e-01 4.305937987926478083e-01 -7.533506130659964328e-02 -2.992047176536006756e-02 3.694491852633267903e-02 3.341066766637431490e-02 -1.463185180827365206e-01 1.341075587293756866e-01 0.000000000000000000e+00 0.000000000000000000e+00 0.000000000000000000e+00 -4.656191817328555777e-15 -2.353531279986629174e-15 0.000000000000000000e+00 2.037396779859742229e-15 -2.610207882120061172e-15 0.000000000000000000e+00 4.980308721543376480e-15 2.569942311106226435e-15 1.152934232865834253e-15 0.000000000000000000e+00 0.000000000000000000e+00 0.000000000000000000e+00 0.000000000000000000e+00 4.686986562367445227e-16 3.017784982461089625e-15 0.000000000000000000e+00 -9.414886224573544675e-16 -7.385129644199390417e-16 4.980308721543376480e-15 2.569942311106226435e-15 1.152934232865834253e-15 0.000000000000000000e+00 -4.275613799642953051e-15 1.669829164160979484e-15 0.000000000000000000e+00 -1.911061483424046485e-15 9.397521738075181551e-16 0.000000000000000000e+00 -3.920456336386215450e-16 -3.154148943499472153e-15 4.980308721543376480e-15 2.569942311106226435e-15 1.152934232865834253e-15 0.000000000000000000e+00 0.000000000000000000e+00 0.000000000000000000e+00 0.000000000000000000e+00 2.683226203930198423e-15 1.086715676654622560e-15 0.000000000000000000e+00 5.563631478710110039e-16 -2.262433322710580658e-15 4.980308721543376480e-15 2.569942311106226435e-15 1.152934232865834253e-15 0.000000000000000000e+00 0.000000000000000000e+00 0.000000000000000000e+00 0.000000000000000000e+00 -1.068611063841438277e-15 6.040523646186401760e-16 0.000000000000000000e+00 -2.579400477731869076e-15 -1.473415849087291626e-15 -1.422503220948634350e-01 4.870708375431100079e-02 -2.651338099569574558e-01 -3.245628134520843477e-02 4.761205097930206603e-02 2.734584299281376252e-01 -2.446867691163659084e-02 -4.050563959935948866e-02 -7.873486697402422296e-02 1.677967178084211614e-02 9.177473844394781755e-02 -3.851823571999582474e-02 0.000000000000000000e+00 0.000000000000000000e+00 0.000000000000000000e+00 2.630090647612067935e-15 -1.185089393009395694e-15 0.000000000000000000e+00 1.837090983297591879e-15 -1.463064709523232085e-15 0.000000000000000000e+00 4.979163614351329119e-16 5.465048182862055265e-16 -2.764639980356596090e-16 0.000000000000000000e+00 0.000000000000000000e+00 0.000000000000000000e+00 0.000000000000000000e+00 -1.644844639453799389e-16 -1.340410247039035221e-15 0.000000000000000000e+00 -1.211230089420765218e-15 2.150789382109719450e-15 4.979163614351329119e-16 5.465048182862055265e-16 -2.764639980356596090e-16 0.000000000000000000e+00 -1.572477758086678936e-16 1.958950654970961036e-17 0.000000000000000000e+00 -2.467315009372906598e-15 -2.878429243783568993e-17 0.000000000000000000e+00 1.652156511835201520e-15 2.963122065620122315e-15 4.979163614351329119e-16 5.465048182862055265e-16 -2.764639980356596090e-16 0.000000000000000000e+00 0.000000000000000000e+00 0.000000000000000000e+00 0.000000000000000000e+00 -2.352212019236993663e-15 3.246451026307703637e-16 0.000000000000000000e+00 -2.306010394358697600e-15 6.000668887016004001e-16 4.979163614351329119e-16 5.465048182862055265e-16 -2.764639980356596090e-16 0.000000000000000000e+00 0.000000000000000000e+00 0.000000000000000000e+00 0.000000000000000000e+00 2.562282910305960258e-15 5.666596123768339563e-16 0.000000000000000000e+00 -2.445331955810714602e-15 2.010847329644519174e-15
